<svg class="main-svg" xmlns="http://www.w3.org/2000/svg" xmlns:xlink="http://www.w3.org/1999/xlink" width="600" height="500" viewBox="0 0 600 500"><rect x="0" y="0" width="600" height="500" style="fill: rgb(255, 255, 255); fill-opacity: 1;"/><defs id="defs-8aa9c1"><g class="clips"><clipPath id="clip8aa9c1xyplot" class="plotclip"><rect width="440" height="320"/></clipPath><clipPath class="axesclip" id="clip8aa9c1x"><rect x="80" y="0" width="440" height="500"/></clipPath><clipPath class="axesclip" id="clip8aa9c1y"><rect x="0" y="100" width="600" height="320"/></clipPath><clipPath class="axesclip" id="clip8aa9c1xy"><rect x="80" y="100" width="440" height="320"/></clipPath></g><g class="gradients"/></defs><g class="bglayer"/><g class="layer-below"><g class="imagelayer"/><g class="shapelayer"/></g><g class="cartesianlayer"><g class="subplot xy"><g class="layer-subplot"><g class="shapelayer"/><g class="imagelayer"/></g><g class="gridlayer"><g class="x"/><g class="y"/></g><g class="zerolinelayer"/><path class="xlines-below"/><path class="ylines-below"/><g class="overlines-below"/><g class="xaxislayer-below"/><g class="yaxislayer-below"/><g class="overaxes-below"/><g class="plot" transform="translate(80, 100)" clip-path="url(#clip8aa9c1xyplot)"><g class="scatterlayer mlayer"><g class="trace scatter trace5cb2c856-64fc-4bf0-b30d-9a6963314112" style="stroke-miterlimit: 2; opacity: 1;"><g class="fills"/><g class="errorbars"/><g class="lines"><path class="js-line" d="M240.61,28.5L178.78,94.25" style="vector-effect: non-scaling-stroke; fill: none; stroke: rgb(110, 110, 110); stroke-opacity: 1; stroke-width: 1px; opacity: 1;"/><path class="js-line" d="M240.61,28.5L281.83,94.25" style="vector-effect: non-scaling-stroke; fill: none; stroke: rgb(110, 110, 110); stroke-opacity: 1; stroke-width: 1px; opacity: 1;"/><path class="js-line" d="M178.78,94.25L96.33,160" style="vector-effect: non-scaling-stroke; fill: none; stroke: rgb(110, 110, 110); stroke-opacity: 1; stroke-width: 1px; opacity: 1;"/><path class="js-line" d="M178.78,94.25L178.78,160" style="vector-effect: non-scaling-stroke; fill: none; stroke: rgb(110, 110, 110); stroke-opacity: 1; stroke-width: 1px; opacity: 1;"/><path class="js-line" d="M96.33,160L34.5,225.75" style="vector-effect: non-scaling-stroke; fill: none; stroke: rgb(110, 110, 110); stroke-opacity: 1; stroke-width: 1px; opacity: 1;"/><path class="js-line" d="M96.33,160L75.72,225.75" style="vector-effect: non-scaling-stroke; fill: none; stroke: rgb(110, 110, 110); stroke-opacity: 1; stroke-width: 1px; opacity: 1;"/><path class="js-line" d="M96.33,160L116.94,225.75" style="vector-effect: non-scaling-stroke; fill: none; stroke: rgb(110, 110, 110); stroke-opacity: 1; stroke-width: 1px; opacity: 1;"/><path class="js-line" d="M34.5,225.75L34.5,291.5" style="vector-effect: non-scaling-stroke; fill: none; stroke: rgb(110, 110, 110); stroke-opacity: 1; stroke-width: 1px; opacity: 1;"/><path class="js-line" d="M178.78,160L158.17,225.75" style="vector-effect: non-scaling-stroke; fill: none; stroke: rgb(110, 110, 110); stroke-opacity: 1; stroke-width: 1px; opacity: 1;"/><path class="js-line" d="M178.78,160L199.39,225.75" style="vector-effect: non-scaling-stroke; fill: none; stroke: rgb(110, 110, 110); stroke-opacity: 1; stroke-width: 1px; opacity: 1;"/><path class="js-line" d="M281.83,94.25L281.83,160" style="vector-effect: non-scaling-stroke; fill: none; stroke: rgb(110, 110, 110); stroke-opacity: 1; stroke-width: 1px; opacity: 1;"/><path class="js-line" d="M281.83,94.25L364.28,160" style="vector-effect: non-scaling-stroke; fill: none; stroke: rgb(110, 110, 110); stroke-opacity: 1; stroke-width: 1px; opacity: 1;"/><path class="js-line" d="M281.83,160L240.61,225.75" style="vector-effect: non-scaling-stroke; fill: none; stroke: rgb(110, 110, 110); stroke-opacity: 1; stroke-width: 1px; opacity: 1;"/><path class="js-line" d="M281.83,160L281.83,225.75" style="vector-effect: non-scaling-stroke; fill: none; stroke: rgb(110, 110, 110); stroke-opacity: 1; stroke-width: 1px; opacity: 1;"/><path class="js-line" d="M281.83,160L323.06,225.75" style="vector-effect: non-scaling-stroke; fill: none; stroke: rgb(110, 110, 110); stroke-opacity: 1; stroke-width: 1px; opacity: 1;"/><path class="js-line" d="M281.83,225.75L281.83,291.5" style="vector-effect: non-scaling-stroke; fill: none; stroke: rgb(110, 110, 110); stroke-opacity: 1; stroke-width: 1px; opacity: 1;"/><path class="js-line" d="M364.28,160L364.28,225.75" style="vector-effect: non-scaling-stroke; fill: none; stroke: rgb(110, 110, 110); stroke-opacity: 1; stroke-width: 1px; opacity: 1;"/><path class="js-line" d="M364.28,160L405.5,225.75" style="vector-effect: non-scaling-stroke; fill: none; stroke: rgb(110, 110, 110); stroke-opacity: 1; stroke-width: 1px; opacity: 1;"/></g><g class="points"/><g class="text"/></g><g class="trace scatter trace0a24acf3-0322-40cf-a5ba-23304a64e697" style="stroke-miterlimit: 2; opacity: 0.8;"><g class="fills"/><g class="errorbars"/><g class="lines"/><g class="points"><path class="point" transform="translate(240.61,28.5)" d="M10,0A10,10 0 1,1 0,-10A10,10 0 0,1 10,0Z" style="opacity: 1; stroke-width: 0.5px; fill: rgb(25, 211, 243); fill-opacity: 1; stroke: rgb(50, 50, 50); stroke-opacity: 1;"/><path class="point" transform="translate(178.78,94.25)" d="M10,0A10,10 0 1,1 0,-10A10,10 0 0,1 10,0Z" style="opacity: 1; stroke-width: 0.5px; fill: rgb(25, 211, 243); fill-opacity: 1; stroke: rgb(50, 50, 50); stroke-opacity: 1;"/><path class="point" transform="translate(281.83,94.25)" d="M10,0A10,10 0 1,1 0,-10A10,10 0 0,1 10,0Z" style="opacity: 1; stroke-width: 0.5px; fill: rgb(25, 211, 243); fill-opacity: 1; stroke: rgb(50, 50, 50); stroke-opacity: 1;"/><path class="point" transform="translate(96.33,160)" d="M10,0A10,10 0 1,1 0,-10A10,10 0 0,1 10,0Z" style="opacity: 1; stroke-width: 0.5px; fill: rgb(25, 211, 243); fill-opacity: 1; stroke: rgb(50, 50, 50); stroke-opacity: 1;"/><path class="point" transform="translate(178.78,160)" d="M10,0A10,10 0 1,1 0,-10A10,10 0 0,1 10,0Z" style="opacity: 1; stroke-width: 0.5px; fill: rgb(25, 211, 243); fill-opacity: 1; stroke: rgb(50, 50, 50); stroke-opacity: 1;"/><path class="point" transform="translate(281.83,160)" d="M10,0A10,10 0 1,1 0,-10A10,10 0 0,1 10,0Z" style="opacity: 1; stroke-width: 0.5px; fill: rgb(25, 211, 243); fill-opacity: 1; stroke: rgb(50, 50, 50); stroke-opacity: 1;"/><path class="point" transform="translate(364.28,160)" d="M10,0A10,10 0 1,1 0,-10A10,10 0 0,1 10,0Z" style="opacity: 1; stroke-width: 0.5px; fill: rgb(25, 211, 243); fill-opacity: 1; stroke: rgb(50, 50, 50); stroke-opacity: 1;"/><path class="point" transform="translate(34.5,225.75)" d="M10,0A10,10 0 1,1 0,-10A10,10 0 0,1 10,0Z" style="opacity: 1; stroke-width: 0.5px; fill: rgb(25, 211, 243); fill-opacity: 1; stroke: rgb(50, 50, 50); stroke-opacity: 1;"/><path class="point" transform="translate(75.72,225.75)" d="M10,0A10,10 0 1,1 0,-10A10,10 0 0,1 10,0Z" style="opacity: 1; stroke-width: 0.5px; fill: rgb(25, 211, 243); fill-opacity: 1; stroke: rgb(50, 50, 50); stroke-opacity: 1;"/><path class="point" transform="translate(116.94,225.75)" d="M10,0A10,10 0 1,1 0,-10A10,10 0 0,1 10,0Z" style="opacity: 1; stroke-width: 0.5px; fill: rgb(25, 211, 243); fill-opacity: 1; stroke: rgb(50, 50, 50); stroke-opacity: 1;"/><path class="point" transform="translate(158.17,225.75)" d="M10,0A10,10 0 1,1 0,-10A10,10 0 0,1 10,0Z" style="opacity: 1; stroke-width: 0.5px; fill: rgb(25, 211, 243); fill-opacity: 1; stroke: rgb(50, 50, 50); stroke-opacity: 1;"/><path class="point" transform="translate(199.39,225.75)" d="M10,0A10,10 0 1,1 0,-10A10,10 0 0,1 10,0Z" style="opacity: 1; stroke-width: 0.5px; fill: rgb(25, 211, 243); fill-opacity: 1; stroke: rgb(50, 50, 50); stroke-opacity: 1;"/><path class="point" transform="translate(240.61,225.75)" d="M10,0A10,10 0 1,1 0,-10A10,10 0 0,1 10,0Z" style="opacity: 1; stroke-width: 0.5px; fill: rgb(25, 211, 243); fill-opacity: 1; stroke: rgb(50, 50, 50); stroke-opacity: 1;"/><path class="point" transform="translate(281.83,225.75)" d="M10,0A10,10 0 1,1 0,-10A10,10 0 0,1 10,0Z" style="opacity: 1; stroke-width: 0.5px; fill: rgb(25, 211, 243); fill-opacity: 1; stroke: rgb(50, 50, 50); stroke-opacity: 1;"/><path class="point" transform="translate(323.06,225.75)" d="M10,0A10,10 0 1,1 0,-10A10,10 0 0,1 10,0Z" style="opacity: 1; stroke-width: 0.5px; fill: rgb(25, 211, 243); fill-opacity: 1; stroke: rgb(50, 50, 50); stroke-opacity: 1;"/><path class="point" transform="translate(364.28,225.75)" d="M10,0A10,10 0 1,1 0,-10A10,10 0 0,1 10,0Z" style="opacity: 1; stroke-width: 0.5px; fill: rgb(25, 211, 243); fill-opacity: 1; stroke: rgb(50, 50, 50); stroke-opacity: 1;"/><path class="point" transform="translate(405.5,225.75)" d="M10,0A10,10 0 1,1 0,-10A10,10 0 0,1 10,0Z" style="opacity: 1; stroke-width: 0.5px; fill: rgb(25, 211, 243); fill-opacity: 1; stroke: rgb(50, 50, 50); stroke-opacity: 1;"/><path class="point" transform="translate(34.5,291.5)" d="M10,0A10,10 0 1,1 0,-10A10,10 0 0,1 10,0Z" style="opacity: 1; stroke-width: 0.5px; fill: rgb(25, 211, 243); fill-opacity: 1; stroke: rgb(50, 50, 50); stroke-opacity: 1;"/><path class="point" transform="translate(281.83,291.5)" d="M10,0A10,10 0 1,1 0,-10A10,10 0 0,1 10,0Z" style="opacity: 1; stroke-width: 0.5px; fill: rgb(25, 211, 243); fill-opacity: 1; stroke: rgb(50, 50, 50); stroke-opacity: 1;"/></g><g class="text"><g class="textpoint" transform="translate(0,3)"><text x="240.61" y="28.5" text-anchor="middle" style="font-family: 'Open Sans', verdana, arial, sans-serif; font-size: 12px; fill: rgb(0, 0, 0); fill-opacity: 1; white-space: pre;">0</text></g><g class="textpoint" transform="translate(0,3)"><text x="178.78" y="94.25" text-anchor="middle" style="font-family: 'Open Sans', verdana, arial, sans-serif; font-size: 12px; fill: rgb(0, 0, 0); fill-opacity: 1; white-space: pre;">1</text></g><g class="textpoint" transform="translate(0,3)"><text x="281.83" y="94.25" text-anchor="middle" style="font-family: 'Open Sans', verdana, arial, sans-serif; font-size: 12px; fill: rgb(0, 0, 0); fill-opacity: 1; white-space: pre;">2</text></g><g class="textpoint" transform="translate(0,3)"><text x="96.33" y="160" text-anchor="middle" style="font-family: 'Open Sans', verdana, arial, sans-serif; font-size: 12px; fill: rgb(0, 0, 0); fill-opacity: 1; white-space: pre;">3</text></g><g class="textpoint" transform="translate(0,3)"><text x="178.78" y="160" text-anchor="middle" style="font-family: 'Open Sans', verdana, arial, sans-serif; font-size: 12px; fill: rgb(0, 0, 0); fill-opacity: 1; white-space: pre;">4</text></g><g class="textpoint" transform="translate(0,3)"><text x="281.83" y="160" text-anchor="middle" style="font-family: 'Open Sans', verdana, arial, sans-serif; font-size: 12px; fill: rgb(0, 0, 0); fill-opacity: 1; white-space: pre;">5</text></g><g class="textpoint" transform="translate(0,3)"><text x="364.28" y="160" text-anchor="middle" style="font-family: 'Open Sans', verdana, arial, sans-serif; font-size: 12px; fill: rgb(0, 0, 0); fill-opacity: 1; white-space: pre;">6</text></g><g class="textpoint" transform="translate(0,3)"><text x="34.5" y="225.75" text-anchor="middle" style="font-family: 'Open Sans', verdana, arial, sans-serif; font-size: 12px; fill: rgb(0, 0, 0); fill-opacity: 1; white-space: pre;">7</text></g><g class="textpoint" transform="translate(0,3)"><text x="75.72" y="225.75" text-anchor="middle" style="font-family: 'Open Sans', verdana, arial, sans-serif; font-size: 12px; fill: rgb(0, 0, 0); fill-opacity: 1; white-space: pre;">8</text></g><g class="textpoint" transform="translate(0,3)"><text x="116.94" y="225.75" text-anchor="middle" style="font-family: 'Open Sans', verdana, arial, sans-serif; font-size: 12px; fill: rgb(0, 0, 0); fill-opacity: 1; white-space: pre;">9</text></g><g class="textpoint" transform="translate(0,3)"><text x="158.17" y="225.75" text-anchor="middle" style="font-family: 'Open Sans', verdana, arial, sans-serif; font-size: 12px; fill: rgb(0, 0, 0); fill-opacity: 1; white-space: pre;">10</text></g><g class="textpoint" transform="translate(0,3)"><text x="199.39" y="225.75" text-anchor="middle" style="font-family: 'Open Sans', verdana, arial, sans-serif; font-size: 12px; fill: rgb(0, 0, 0); fill-opacity: 1; white-space: pre;">11</text></g><g class="textpoint" transform="translate(0,3)"><text x="240.61" y="225.75" text-anchor="middle" style="font-family: 'Open Sans', verdana, arial, sans-serif; font-size: 12px; fill: rgb(0, 0, 0); fill-opacity: 1; white-space: pre;">12</text></g><g class="textpoint" transform="translate(0,3)"><text x="281.83" y="225.75" text-anchor="middle" style="font-family: 'Open Sans', verdana, arial, sans-serif; font-size: 12px; fill: rgb(0, 0, 0); fill-opacity: 1; white-space: pre;">13</text></g><g class="textpoint" transform="translate(0,3)"><text x="323.06" y="225.75" text-anchor="middle" style="font-family: 'Open Sans', verdana, arial, sans-serif; font-size: 12px; fill: rgb(0, 0, 0); fill-opacity: 1; white-space: pre;">14</text></g><g class="textpoint" transform="translate(0,3)"><text x="364.28" y="225.75" text-anchor="middle" style="font-family: 'Open Sans', verdana, arial, sans-serif; font-size: 12px; fill: rgb(0, 0, 0); fill-opacity: 1; white-space: pre;">15</text></g><g class="textpoint" transform="translate(0,3)"><text x="405.5" y="225.75" text-anchor="middle" style="font-family: 'Open Sans', verdana, arial, sans-serif; font-size: 12px; fill: rgb(0, 0, 0); fill-opacity: 1; white-space: pre;">16</text></g><g class="textpoint" transform="translate(0,3)"><text x="34.5" y="291.5" text-anchor="middle" style="font-family: 'Open Sans', verdana, arial, sans-serif; font-size: 12px; fill: rgb(0, 0, 0); fill-opacity: 1; white-space: pre;">17</text></g><g class="textpoint" transform="translate(0,3)"><text x="281.83" y="291.5" text-anchor="middle" style="font-family: 'Open Sans', verdana, arial, sans-serif; font-size: 12px; fill: rgb(0, 0, 0); fill-opacity: 1; white-space: pre;">18</text></g></g></g></g></g><g class="overplot"/><path class="xlines-above crisp" d="M0,0" style="fill: none;"/><path class="ylines-above crisp" d="M0,0" style="fill: none;"/><g class="overlines-above"/><g class="xaxislayer-above"/><g class="yaxislayer-above"/><g class="overaxes-above"/></g></g><g class="polarlayer"/><g class="ternarylayer"/><g class="geolayer"/><g class="pielayer"/><g class="glimages"/><defs id="topdefs-8aa9c1"><g class="clips"/></defs><g class="layer-above"><g class="imagelayer"/><g class="shapelayer"/></g><g class="infolayer"><g class="g-gtitle"/></g></svg>